<svg width="269" height="111" viewBox="0 0 269 111" fill="none" xmlns="http://www.w3.org/2000/svg">
<path d="M57.032 6.31199C57.352 6.76 57.576 7.24 57.704 7.752C57.832 8.2 57.96 8.68 58.088 9.192C58.216 9.704 58.312 10.216 58.376 10.728C58.504 11.24 58.568 11.752 58.568 12.264C58.568 12.84 58.504 13.416 58.376 13.992C58.248 14.568 58.088 15.144 57.896 15.72C57.768 16.296 57.64 16.904 57.512 17.544C57.448 18.12 57.256 18.696 56.936 19.272C56.68 19.784 56.36 20.296 55.976 20.808C55.656 21.256 55.304 21.736 54.92 22.248C54.6 22.76 54.248 23.24 53.864 23.688C53.544 24.136 53.16 24.584 52.712 25.032C53.032 25.544 53.288 26.088 53.48 26.664C53.736 27.176 53.992 27.72 54.248 28.296C54.568 28.808 54.824 29.352 55.016 29.928C55.208 30.44 55.4 31.016 55.592 31.656C55.784 32.168 55.976 32.712 56.168 33.288C56.36 33.864 56.52 34.472 56.648 35.112C56.776 35.688 56.904 36.264 57.032 36.84C57.16 37.416 57.288 38.024 57.416 38.664C57.544 39.24 57.576 39.848 57.512 40.488C57.512 41.064 57.544 41.672 57.608 42.312C57.608 42.888 57.64 43.496 57.704 44.136C57.768 44.712 57.8 45.288 57.8 45.864C57.8 46.44 57.768 47.016 57.704 47.592C57.704 48.168 57.704 48.776 57.704 49.416L57.416 52.872C57.352 53.448 57.288 54.024 57.224 54.6C57.224 55.176 57.16 55.752 57.032 56.328C56.904 56.904 56.776 57.48 56.648 58.056C56.52 58.632 56.392 59.208 56.264 59.784L55.4 63.144C55.208 63.72 55.016 64.296 54.824 64.872C54.696 65.448 54.536 65.992 54.344 66.504C54.088 67.08 53.8 67.624 53.48 68.136C53.224 68.584 52.968 69.064 52.712 69.576C52.392 70.088 52.104 70.632 51.848 71.208C51.656 71.72 51.4 72.232 51.08 72.744C50.76 73.256 50.408 73.736 50.024 74.184C49.704 74.632 49.352 75.08 48.968 75.528C48.584 76.04 48.136 76.52 47.624 76.968C47.176 77.352 46.728 77.736 46.28 78.12C45.256 79.08 44.264 79.848 43.304 80.424C42.792 80.744 42.248 81.096 41.672 81.48C41.16 81.864 40.616 82.152 40.04 82.344C38.952 82.792 37.768 83.176 36.488 83.496C35.848 83.624 35.208 83.656 34.568 83.592C33.928 83.592 33.288 83.592 32.648 83.592V83.784H32.264C31.112 83.784 30.024 83.688 29 83.496C28.488 83.368 27.976 83.208 27.464 83.016C26.952 82.824 26.44 82.632 25.928 82.44C25.416 82.248 24.904 82.056 24.392 81.864C23.944 81.736 23.464 81.544 22.952 81.288C22.44 80.968 21.96 80.648 21.512 80.328C21.128 80.008 20.712 79.688 20.264 79.368C19.816 79.048 19.4 78.728 19.016 78.408C18.632 78.024 18.248 77.64 17.864 77.256C17.032 76.424 16.328 75.592 15.752 74.76C15.112 73.992 14.408 73.032 13.64 71.88C13.32 71.368 13.064 70.824 12.872 70.248C12.68 69.672 12.456 69.128 12.2 68.616C11.944 68.104 11.72 67.56 11.528 66.984C11.336 66.408 11.144 65.832 10.952 65.256L9.992 61.8C9.864 61.224 9.768 60.648 9.704 60.072C9.64 59.496 9.544 58.888 9.416 58.248C9.288 57.672 9.16 57.096 9.032 56.52C8.968 55.944 8.936 55.336 8.936 54.696C8.872 54.12 8.84 53.544 8.84 52.968C8.904 52.392 8.936 51.784 8.936 51.144C8.936 50.568 8.872 49.992 8.744 49.416C8.68 48.776 8.68 48.168 8.744 47.592L9.032 43.944L9.704 40.488L10.28 36.936L11.048 33.384V33.48L11.24 33.288C10.664 33.096 10.088 32.936 9.512 32.808C8.936 32.616 8.392 32.36 7.88 32.04C7.368 31.72 6.888 31.336 6.44 30.888C6.056 30.44 5.64 30.024 5.192 29.64C4.744 29.192 4.328 28.776 3.944 28.392C3.496 27.944 3.112 27.464 2.792 26.952C2.152 26.056 1.672 24.968 1.352 23.688C1.096 22.664 0.968 21.448 0.968 20.04C0.968 19.016 1.128 17.928 1.448 16.776C1.64 15.688 1.928 14.6 2.312 13.512C2.504 13 2.728 12.488 2.984 11.976C3.24 11.464 3.528 10.952 3.848 10.44C4.168 9.928 4.456 9.448 4.712 8.99999C4.904 8.488 5.16 8.008 5.48 7.56C5.864 7.04799 6.248 6.63199 6.632 6.31199C7.08 5.99199 7.496 5.64 7.88 5.256C8.456 5.256 8.744 5.48 8.744 5.92799C8.36 6.312 8.008 6.728 7.688 7.17599C7.368 7.56 7.048 7.976 6.728 8.424C6.024 9.32 5.448 10.184 5 11.016C4.68 11.528 4.392 12.008 4.136 12.456C3.816 12.84 3.56 13.288 3.368 13.8C2.984 14.824 2.696 15.848 2.504 16.872C2.376 17.384 2.312 17.928 2.312 18.504C2.312 19.016 2.312 19.528 2.312 20.04C2.312 20.616 2.312 21.192 2.312 21.768C2.248 22.344 2.28 22.888 2.408 23.4C2.536 23.912 2.76 24.392 3.08 24.84C3.336 25.288 3.624 25.768 3.944 26.28C4.584 27.24 5.256 28.072 5.96 28.776C6.344 29.16 6.76 29.512 7.208 29.832C7.656 30.088 8.136 30.376 8.648 30.696C9.096 31.016 9.544 31.304 9.992 31.56C10.504 31.816 11.016 32.04 11.528 32.232C11.656 31.72 11.816 31.208 12.008 30.696C12.2 30.184 12.392 29.672 12.584 29.16L13.736 26.088C13.992 25.576 14.216 25.064 14.408 24.552C14.6 24.04 14.824 23.528 15.08 23.016C15.336 22.504 15.56 22.024 15.752 21.576C16.008 21.064 16.296 20.552 16.616 20.04C16.872 19.528 17.16 19.08 17.48 18.696C17.8 18.248 18.12 17.768 18.44 17.256L20.264 14.568C20.584 14.12 20.904 13.704 21.224 13.32C21.608 12.872 21.992 12.424 22.376 11.976C22.76 11.528 23.112 11.112 23.432 10.728C23.816 10.344 24.232 9.96 24.68 9.576C25.512 8.616 26.472 7.752 27.56 6.984C28.072 6.536 28.584 6.15199 29.096 5.832C29.672 5.512 30.248 5.16 30.824 4.776C31.336 4.456 31.848 4.136 32.36 3.816C32.936 3.432 33.512 3.07999 34.088 2.75999C34.664 2.50399 35.208 2.27999 35.72 2.088C36.296 1.832 36.872 1.608 37.448 1.41599C38.024 1.288 38.6 1.16 39.176 1.03199C39.816 0.903996 40.424 0.775997 41 0.647999C42.216 0.455997 43.432 0.359997 44.648 0.359997C45.736 0.359997 46.984 0.519997 48.392 0.839996C49.8 1.032 51.016 1.352 52.04 1.8C52.616 2.056 53.128 2.376 53.576 2.75999C54.088 3.144 54.568 3.56 55.016 4.008C55.4 4.328 55.752 4.68 56.072 5.064C56.456 5.448 56.776 5.864 57.032 6.31199ZM53.288 28.968C53.032 28.456 52.776 27.944 52.52 27.432C52.328 26.856 52.072 26.312 51.752 25.8C51.368 26.184 50.984 26.568 50.6 26.952C50.216 27.336 49.8 27.688 49.352 28.008C48.904 28.328 48.488 28.648 48.104 28.968C47.72 29.288 47.272 29.608 46.76 29.928C45.8 30.568 44.872 31.112 43.976 31.56C43.464 31.816 42.952 32.008 42.44 32.136C41.928 32.264 41.416 32.424 40.904 32.616C40.392 32.808 39.912 33.064 39.464 33.384C39.016 33.64 38.536 33.832 38.024 33.96C37.512 34.088 37 34.184 36.488 34.248C35.976 34.248 35.464 34.312 34.952 34.44C34.44 34.568 33.928 34.728 33.416 34.92C32.904 35.048 32.392 35.176 31.88 35.304C31.368 35.432 30.824 35.528 30.248 35.592C29.736 35.592 29.224 35.624 28.712 35.688C28.2 35.752 27.656 35.784 27.08 35.784C26.568 35.72 26.056 35.688 25.544 35.688C25.032 35.688 24.488 35.688 23.912 35.688C23.4 35.624 22.888 35.56 22.376 35.496L19.112 35.304L15.848 34.728C15.72 35.24 15.656 35.784 15.656 36.36C15.656 36.936 15.592 37.512 15.464 38.088C15.336 38.6 15.208 39.144 15.08 39.72C14.952 40.232 14.856 40.744 14.792 41.256C14.664 41.832 14.6 42.408 14.6 42.984C14.664 43.496 14.664 44.04 14.6 44.616C14.536 45.128 14.504 45.672 14.504 46.248C14.568 46.76 14.568 47.304 14.504 47.88V51.144C14.504 51.72 14.472 52.296 14.408 52.872C14.344 53.448 14.312 53.992 14.312 54.504L14.6 57.864C14.664 58.504 14.728 59.112 14.792 59.688C14.92 60.2 15.016 60.712 15.08 61.224C15.208 61.8 15.24 62.376 15.176 62.952C15.176 63.528 15.24 64.104 15.368 64.68C15.496 65.256 15.656 65.8 15.848 66.312C16.104 66.824 16.328 67.336 16.52 67.848C16.648 68.424 16.776 69 16.904 69.576C17.096 70.088 17.32 70.6 17.576 71.112C17.768 71.624 17.992 72.136 18.248 72.648C18.504 73.096 18.76 73.576 19.016 74.088C19.336 74.6 19.624 75.112 19.88 75.624C20.2 76.072 20.52 76.52 20.84 76.968C21.224 77.416 21.576 77.864 21.896 78.312C22.28 78.696 22.696 79.048 23.144 79.368C23.976 80.072 24.936 80.68 26.024 81.192C26.536 81.384 27.048 81.544 27.56 81.672C28.136 81.864 28.712 82.024 29.288 82.152C30.312 82.344 31.432 82.44 32.648 82.44V82.536C33.864 82.536 35.048 82.44 36.2 82.248C36.776 82.12 37.352 81.96 37.928 81.768C38.504 81.64 39.08 81.448 39.656 81.192C40.168 80.936 40.68 80.68 41.192 80.424C41.768 80.168 42.312 79.88 42.824 79.56C43.784 78.856 44.712 78.12 45.608 77.352C46.056 76.968 46.472 76.584 46.856 76.2C47.304 75.816 47.752 75.368 48.2 74.856C48.52 74.408 48.808 73.96 49.064 73.512C49.384 73 49.704 72.488 50.024 71.976C50.344 71.464 50.632 70.984 50.888 70.536C51.144 70.024 51.4 69.512 51.656 69C52.232 68.104 52.712 67.08 53.096 65.928C53.288 65.416 53.48 64.904 53.672 64.392C53.864 63.816 54.024 63.272 54.152 62.76C54.6 61.544 54.952 60.456 55.208 59.496C55.336 58.92 55.4 58.344 55.4 57.768C55.464 57.192 55.56 56.648 55.688 56.136C55.816 55.56 55.944 55.016 56.072 54.504C56.2 53.928 56.296 53.352 56.36 52.776L56.648 49.32V45.864C56.648 45.288 56.648 44.712 56.648 44.136C56.648 43.56 56.616 42.984 56.552 42.408C56.552 41.832 56.488 41.256 56.36 40.68C56.296 40.104 56.232 39.528 56.168 38.952C56.04 38.376 55.944 37.8 55.88 37.224C55.816 36.648 55.72 36.072 55.592 35.496C55.464 34.92 55.272 34.376 55.016 33.864C54.824 33.288 54.664 32.744 54.536 32.232C54.344 31.656 54.152 31.112 53.96 30.6C53.768 30.024 53.544 29.48 53.288 28.968ZM56.744 15.432C56.872 14.92 57.032 14.408 57.224 13.896C57.416 13.32 57.512 12.776 57.512 12.264C57.512 11.624 57.416 11.016 57.224 10.44C57.032 9.8 56.84 9.192 56.648 8.616C56.264 7.528 55.624 6.472 54.728 5.44799C54.344 5 53.928 4.584 53.48 4.2C53.032 3.816 52.488 3.46399 51.848 3.144C51.336 2.88799 50.792 2.664 50.216 2.472C49.704 2.216 49.096 2.024 48.392 1.89599C47.816 1.768 47.208 1.704 46.568 1.704C45.992 1.64 45.352 1.608 44.648 1.608V1.51199C44.584 1.51199 44.552 1.54399 44.552 1.608V1.51199C43.976 1.51199 43.4 1.54399 42.824 1.608C42.248 1.672 41.704 1.768 41.192 1.89599C40.616 2.024 40.04 2.184 39.464 2.37599C38.952 2.504 38.408 2.664 37.832 2.856C36.68 3.24 35.656 3.72 34.76 4.296C34.248 4.616 33.736 4.904 33.224 5.16C32.712 5.352 32.2 5.60799 31.688 5.92799C31.176 6.248 30.696 6.6 30.248 6.984C29.864 7.368 29.448 7.752 29 8.13599C28.616 8.52 28.232 8.936 27.848 9.384C27.528 9.832 27.176 10.28 26.792 10.728C26.344 11.24 25.896 11.72 25.448 12.168C25.064 12.552 24.68 13 24.296 13.512C23.976 14.024 23.688 14.568 23.432 15.144C23.176 15.656 22.888 16.168 22.568 16.68L20.84 19.848C20.584 20.424 20.328 21 20.072 21.576C19.88 22.088 19.688 22.632 19.496 23.208C19.24 23.784 18.984 24.36 18.728 24.936C18.472 25.448 18.248 25.992 18.056 26.568C17.864 27.144 17.672 27.72 17.48 28.296C17.288 28.872 17.128 29.48 17 30.12C16.808 30.696 16.648 31.272 16.52 31.848C16.392 32.424 16.264 33.032 16.136 33.672C16.648 33.8 17.16 33.896 17.672 33.96C18.184 33.96 18.728 33.992 19.304 34.056C19.816 34.184 20.328 34.248 20.84 34.248C21.352 34.248 21.896 34.28 22.472 34.344C22.984 34.408 23.496 34.472 24.008 34.536C24.52 34.536 25.032 34.536 25.544 34.536C26.184 34.536 26.792 34.536 27.368 34.536C27.944 34.472 28.52 34.408 29.096 34.344C29.672 34.28 30.248 34.216 30.824 34.152C31.4 34.088 31.976 33.992 32.552 33.864C33.128 33.736 33.704 33.64 34.28 33.576C34.856 33.448 35.4 33.32 35.912 33.192C36.488 33 37.064 32.84 37.64 32.712C38.216 32.52 38.76 32.328 39.272 32.136C39.784 31.88 40.328 31.688 40.904 31.56C41.48 31.368 42.024 31.144 42.536 30.888C43.048 30.632 43.528 30.344 43.976 30.024C44.488 29.704 45 29.384 45.512 29.064C46.024 28.744 46.504 28.424 46.952 28.104C47.464 27.784 47.944 27.432 48.392 27.048C48.904 26.728 49.352 26.408 49.736 26.088C50.184 25.704 50.6 25.288 50.984 24.84C50.6 24.328 50.216 23.848 49.832 23.4C49.448 22.888 49 22.408 48.488 21.96C47.976 21.512 47.496 21.064 47.048 20.616C46.6 20.168 46.088 19.784 45.512 19.464C45 19.144 44.424 18.888 43.784 18.696C43.144 18.44 42.504 18.216 41.864 18.024C41.672 17.576 41.832 17.192 42.344 16.872C42.856 17 43.336 17.128 43.784 17.256C44.232 17.384 44.712 17.576 45.224 17.832C45.672 18.088 46.088 18.376 46.472 18.696C46.856 19.016 47.272 19.336 47.72 19.656C48.488 20.232 49.256 20.904 50.024 21.672C50.344 21.992 50.664 22.344 50.984 22.728C51.304 23.048 51.624 23.432 51.944 23.88C52.328 23.432 52.68 23.016 53 22.632C53.32 22.248 53.64 21.832 53.96 21.384C54.28 20.872 54.6 20.424 54.92 20.04C55.304 19.656 55.624 19.208 55.88 18.696C56.136 18.184 56.296 17.64 56.36 17.064C56.488 16.488 56.616 15.944 56.744 15.432ZM94.7893 79.848C95.4933 79.848 96.1333 79.656 96.7093 79.272C97.0293 79.144 97.3173 79.016 97.5733 78.888C97.8293 78.76 98.1173 78.536 98.4373 78.216C98.6933 78.024 98.9173 77.8 99.1093 77.544C99.3013 77.288 99.4933 77 99.6853 76.68L100.837 75.048C100.965 74.728 101.093 74.44 101.221 74.184C101.413 73.928 101.605 73.64 101.797 73.32C101.925 73 102.053 72.712 102.181 72.456C102.373 72.136 102.533 71.816 102.661 71.496L103.429 69.672C103.557 69.352 103.685 69.032 103.813 68.712C103.941 68.392 104.069 68.072 104.197 67.752L104.773 65.832C104.901 65.512 104.997 65.224 105.061 64.968C105.189 64.648 105.285 64.328 105.349 64.008C105.669 63.88 105.893 63.848 106.021 63.912C106.149 63.976 106.309 64.104 106.501 64.296C106.437 64.552 106.373 64.84 106.309 65.16C106.245 65.48 106.149 65.8 106.021 66.12C105.893 66.76 105.701 67.4 105.445 68.04L104.773 69.768C104.645 70.088 104.517 70.408 104.389 70.728C104.261 70.984 104.133 71.272 104.005 71.592L103.237 73.32C103.109 73.64 102.949 73.928 102.757 74.184C102.565 74.44 102.373 74.728 102.181 75.048C101.925 75.624 101.573 76.168 101.125 76.68C100.933 77 100.741 77.32 100.549 77.64C100.421 77.896 100.229 78.152 99.9733 78.408C99.7173 78.664 99.4613 78.92 99.2053 79.176C99.0133 79.368 98.7893 79.528 98.5333 79.656C98.0213 80.104 97.4453 80.424 96.8053 80.616C96.0373 80.936 95.3653 81.096 94.7893 81.096C94.4693 81.096 94.1493 81.064 93.8293 81C93.5733 80.936 93.2853 80.84 92.9653 80.712C92.6453 80.648 92.3573 80.552 92.1013 80.424C91.8453 80.296 91.5573 80.168 91.2373 80.04C90.6613 79.72 90.2133 79.304 89.8933 78.792C89.3173 78.216 88.9013 77.64 88.6453 77.064C88.5173 76.744 88.3893 76.424 88.2613 76.104C88.1973 75.784 88.1013 75.464 87.9733 75.144C87.8453 74.632 87.7173 73.928 87.5893 73.032C87.4613 72.712 87.3653 72.392 87.3013 72.072C87.3013 71.688 87.2693 71.336 87.2053 71.016V68.904C87.2053 68.584 87.1733 68.232 87.1093 67.848C87.1093 67.464 87.1093 67.112 87.1093 66.792C87.1093 66.472 87.1093 66.12 87.1093 65.736C87.1733 65.352 87.2053 65 87.2053 64.68C87.2693 64.36 87.3013 64.008 87.3013 63.624C87.3013 63.24 87.3013 62.888 87.3013 62.568L87.4933 60.456L87.8773 58.344C87.7493 58.664 87.6213 59.016 87.4933 59.4C87.4293 59.72 87.3333 60.04 87.2053 60.36C87.0773 60.68 86.9493 61 86.8213 61.32C86.7573 61.576 86.6613 61.864 86.5333 62.184C86.4053 62.504 86.3093 62.824 86.2453 63.144C86.1813 63.464 86.0853 63.784 85.9573 64.104L85.1893 65.928C85.0613 66.248 84.9333 66.568 84.8053 66.888C84.7413 67.208 84.6453 67.528 84.5173 67.848L83.5573 69.768C83.4293 70.088 83.3013 70.408 83.1733 70.728C83.0453 71.048 82.9173 71.368 82.7893 71.688L81.6373 73.416C81.5093 73.736 81.3493 74.056 81.1573 74.376C81.0293 74.696 80.8693 75.016 80.6773 75.336L79.5253 77.064L78.2773 78.504C78.0213 78.76 77.7653 78.984 77.5093 79.176C77.2533 79.368 76.9973 79.56 76.7413 79.752C76.2933 80.136 75.7493 80.424 75.1093 80.616C74.5333 80.872 73.8933 81 73.1893 81C72.4213 81 71.6533 80.904 70.8853 80.712C70.1813 80.52 69.4773 80.232 68.7733 79.848C68.4533 79.592 68.1333 79.368 67.8133 79.176C67.4933 78.984 67.2053 78.728 66.9492 78.408C66.4373 77.768 66.0533 77.16 65.7973 76.584C65.6053 76.264 65.4453 75.944 65.3173 75.624C65.1893 75.304 65.0613 74.984 64.9333 74.664L64.4533 72.552L64.0693 70.536L63.8773 68.424C63.8773 68.104 63.8453 67.752 63.7812 67.368C63.7812 66.984 63.7812 66.632 63.7812 66.312V64.2C63.7812 63.88 63.7812 63.528 63.7812 63.144C63.8453 62.76 63.8773 62.408 63.8773 62.088C63.9413 61.768 63.9733 61.448 63.9733 61.128C64.0373 60.744 64.0693 60.36 64.0693 59.976L64.3573 57.864C64.3573 57.544 64.3573 57.224 64.3573 56.904C64.3573 56.52 64.3893 56.136 64.4533 55.752L64.8373 53.736L65.1253 51.624L65.3173 49.512L65.7013 47.4L66.0853 45.384L66.4693 43.272L66.9492 40.488C66.9492 40.36 66.9173 40.264 66.8533 40.2C66.7893 40.072 66.8213 39.976 66.9492 39.912C67.4613 39.848 67.7813 39.848 67.9093 39.912C68.0373 39.976 68.3573 40.04 68.8693 40.104L70.5973 40.392C71.1093 40.456 71.4293 40.456 71.5573 40.392C71.7493 40.328 72.0373 40.392 72.4213 40.584C72.5493 40.648 72.5493 40.744 72.4213 40.872C72.3573 40.936 72.3253 41.032 72.3253 41.16C72.1973 41.48 72.1013 41.8 72.0373 42.12C72.0373 42.44 71.9733 42.824 71.8453 43.272L71.4613 45.288C71.3973 45.608 71.3013 45.96 71.1733 46.344C71.1093 46.664 71.0133 46.984 70.8853 47.304L70.5013 49.32L70.2133 51.432C70.0853 51.752 69.9893 52.104 69.9253 52.488C69.9253 52.808 69.8933 53.128 69.8293 53.448C69.7013 53.768 69.6053 54.12 69.5413 54.504C69.5413 54.824 69.5093 55.144 69.4453 55.464L69.1573 57.576L68.7733 59.592L68.5813 61.704C68.5813 62.024 68.5493 62.376 68.4853 62.76C68.4213 63.144 68.3893 63.496 68.3893 63.816C68.3253 64.2 68.2933 64.584 68.2933 64.968C68.2933 65.288 68.2933 65.608 68.2933 65.928C68.2293 66.312 68.1653 66.696 68.1013 67.08C68.1013 67.4 68.1013 67.72 68.1013 68.04C68.1013 68.424 68.0693 68.808 68.0053 69.192C68.0053 69.576 68.0053 69.928 68.0053 70.248L68.1973 72.36C68.2613 72.744 68.2933 73.128 68.2933 73.512C68.2933 73.832 68.3573 74.152 68.4853 74.472C68.5493 74.856 68.6453 75.208 68.7733 75.528C68.9013 75.848 69.0293 76.168 69.1573 76.488C69.4773 77.384 69.7973 78.024 70.1172 78.408C70.5013 78.856 70.9493 79.24 71.4613 79.56C71.7813 79.688 72.0693 79.784 72.3253 79.848C72.5813 79.912 72.8693 79.944 73.1893 79.944C73.8293 79.944 74.5013 79.752 75.2053 79.368C75.5253 79.24 75.8133 79.08 76.0693 78.888C76.3253 78.632 76.6133 78.376 76.9333 78.12C77.1893 77.864 77.4133 77.608 77.6053 77.352C77.8613 77.096 78.0853 76.808 78.2773 76.488C78.5333 76.232 78.7253 75.976 78.8533 75.72C79.0453 75.464 79.2693 75.176 79.5253 74.856L80.5813 73.032C80.7093 72.712 80.8693 72.424 81.0613 72.168C81.3173 71.848 81.5093 71.528 81.6373 71.208L83.3653 67.368L84.0373 65.448C84.1653 65.128 84.2933 64.808 84.4213 64.488C84.6133 64.104 84.7733 63.752 84.9013 63.432C85.0293 63.112 85.1253 62.792 85.1893 62.472C85.2533 62.088 85.3493 61.736 85.4773 61.416C85.6053 61.096 85.7333 60.776 85.8613 60.456C85.9893 60.136 86.1173 59.816 86.2453 59.496C86.3733 59.176 86.4373 58.856 86.4373 58.536C86.5013 58.152 86.5973 57.8 86.7253 57.48L87.4933 55.464L87.9733 53.352L88.5493 51.336L89.2213 49.416C89.2853 48.968 89.3173 48.552 89.3173 48.168C89.3813 47.784 89.4773 47.4 89.6053 47.016C89.6693 46.568 89.7013 46.152 89.7013 45.768C89.7653 45.384 89.8613 45 89.9893 44.616C90.1173 43.72 90.2453 43.016 90.3733 42.504L90.5653 40.488C90.6293 40.36 90.6293 40.264 90.5653 40.2C90.5653 40.072 90.6293 39.976 90.7573 39.912C91.3973 39.848 91.8133 39.848 92.0052 39.912C92.1973 39.976 92.6133 40.072 93.2533 40.2C93.8933 40.264 94.3093 40.296 94.5013 40.296C94.7573 40.232 95.1733 40.296 95.7493 40.488C95.9413 40.616 95.9733 40.744 95.8453 40.872C95.7813 40.936 95.7493 41.032 95.7493 41.16C95.6853 41.352 95.6213 41.544 95.5573 41.736C95.4933 41.864 95.4293 42.056 95.3653 42.312C95.3013 42.632 95.2373 42.984 95.1733 43.368C95.1733 43.688 95.1093 44.04 94.9813 44.424C94.9173 44.744 94.8533 45.096 94.7893 45.48C94.7893 45.8 94.7253 46.152 94.5973 46.536C94.5333 46.856 94.4693 47.208 94.4053 47.592C94.3413 47.912 94.2453 48.264 94.1173 48.648C94.0533 48.968 93.9573 49.32 93.8293 49.704C93.7653 50.024 93.7013 50.376 93.6373 50.76L93.2533 52.872L92.9653 55.08L92.6773 57.192L92.2933 59.304L92.1013 61.512L91.8133 63.432C91.8133 63.752 91.8133 64.104 91.8133 64.488C91.8133 64.808 91.7813 65.128 91.7173 65.448C91.7173 65.768 91.6853 66.088 91.6213 66.408C91.5573 66.728 91.4933 67.048 91.4293 67.368V69.384C91.4293 69.704 91.3973 70.024 91.3333 70.344C91.3333 70.664 91.3333 70.984 91.3333 71.304C91.3973 71.688 91.4293 72.04 91.4293 72.36C91.4293 72.68 91.4293 73 91.4293 73.32L91.6213 75.336C91.8133 76.04 92.0053 76.648 92.1973 77.16C92.3253 77.608 92.4533 77.992 92.5813 78.312C92.7733 78.568 92.9333 78.792 93.0613 78.984C93.5093 79.56 94.0853 79.848 94.7893 79.848ZM133.066 74.472C133.258 74.152 133.418 73.832 133.546 73.512C133.738 73.128 133.898 72.776 134.026 72.456L134.89 70.344C135.018 70.024 135.146 69.704 135.274 69.384C135.402 69 135.53 68.616 135.658 68.232L136.138 66.12C136.266 65.736 136.394 65.384 136.522 65.064C136.65 64.68 136.778 64.328 136.906 64.008C137.226 63.944 137.45 63.912 137.578 63.912C137.706 63.912 137.866 64.008 138.058 64.2L137.578 66.12L137.098 67.944L136.426 69.768C136.298 70.088 136.17 70.408 136.042 70.728C135.978 70.984 135.882 71.272 135.754 71.592L135.082 73.32L134.218 75.048C134.026 75.368 133.866 75.656 133.738 75.912C133.61 76.168 133.45 76.456 133.258 76.776L132.106 78.312C131.914 78.632 131.69 78.888 131.434 79.08C131.178 79.272 130.954 79.464 130.762 79.656C130.442 79.912 130.154 80.136 129.898 80.328C129.642 80.456 129.354 80.584 129.034 80.712C128.714 80.84 128.394 80.936 128.074 81C127.754 81.064 127.434 81.096 127.114 81.096C126.794 81.096 126.474 81.064 126.154 81C125.898 80.936 125.61 80.872 125.29 80.808C124.522 80.616 123.914 80.36 123.466 80.04C123.21 79.848 122.986 79.656 122.794 79.464C122.602 79.208 122.378 78.952 122.122 78.696C121.674 78.12 121.322 77.544 121.066 76.968C120.874 76.648 120.682 76.36 120.49 76.104C120.362 75.784 120.234 75.464 120.106 75.144C119.85 74.44 119.69 73.768 119.626 73.128L119.338 71.112C119.338 70.792 119.306 70.472 119.242 70.152C119.242 69.768 119.242 69.416 119.242 69.096C119.178 68.776 119.114 68.456 119.049 68.136C119.049 67.752 119.049 67.368 119.049 66.984V64.968C119.049 64.648 119.049 64.328 119.049 64.008C119.114 63.624 119.178 63.272 119.242 62.952C119.242 62.568 119.21 62.216 119.146 61.896C119.146 61.512 119.178 61.16 119.242 60.84C119.242 60.52 119.274 60.2 119.338 59.88C119.402 59.496 119.434 59.144 119.434 58.824L119.818 56.808C119.818 56.488 119.786 56.136 119.722 55.752C119.722 55.368 119.754 55.016 119.818 54.696L120.106 52.68L120.49 50.664L120.778 48.648L121.066 46.536L121.45 44.616C121.258 44.872 121.034 45.096 120.778 45.288C120.586 45.48 120.33 45.704 120.01 45.96C119.626 46.28 119.05 46.6 118.282 46.92C118.026 47.048 117.738 47.144 117.418 47.208C117.098 47.272 116.778 47.368 116.458 47.496C116.138 47.56 115.818 47.624 115.498 47.688C115.178 47.752 114.826 47.784 114.442 47.784C113.994 47.784 113.45 47.72 112.81 47.592L111.178 47.304L111.082 47.4H111.178C111.114 47.72 111.018 48.04 110.89 48.36C110.826 48.68 110.762 49 110.698 49.32L110.218 51.144L109.738 53.064C109.674 53.384 109.578 53.704 109.45 54.024C109.322 54.28 109.194 54.568 109.066 54.888C109.002 55.208 108.97 55.528 108.97 55.848C108.97 56.168 108.906 56.488 108.778 56.808L108.202 58.632C108.074 58.952 107.946 59.272 107.818 59.592C107.754 59.848 107.658 60.136 107.53 60.456C107.402 60.84 107.306 61.224 107.242 61.608C107.242 61.992 107.178 62.376 107.05 62.76C106.922 63.144 106.794 63.528 106.666 63.912C106.538 64.232 106.41 64.552 106.282 64.872C105.962 65 105.738 65.064 105.61 65.064C105.546 65 105.418 64.84 105.226 64.584L105.802 62.376C105.93 62.056 106.026 61.704 106.09 61.32C106.218 60.936 106.346 60.552 106.474 60.168L106.954 58.248C107.082 57.928 107.178 57.64 107.242 57.384C107.37 57.064 107.498 56.744 107.626 56.424L108.01 54.6C108.138 54.28 108.234 53.96 108.298 53.64C108.426 53.32 108.522 53 108.586 52.68L109.066 50.856C109.13 50.536 109.162 50.216 109.162 49.896C109.226 49.576 109.322 49.256 109.45 48.936L109.93 47.112L108.105 46.248C107.786 46.056 107.498 45.864 107.242 45.672C106.986 45.416 106.73 45.192 106.474 45C105.962 44.488 105.514 43.944 105.13 43.368C105.002 43.048 104.873 42.76 104.745 42.504C104.553 42.184 104.393 41.864 104.265 41.544C104.137 41.224 104.073 40.904 104.073 40.584C104.009 40.2 103.945 39.848 103.881 39.528C103.881 39.208 103.881 38.888 103.881 38.568C103.881 38.184 103.913 37.832 103.977 37.512C104.041 36.808 104.233 36.104 104.553 35.4C104.873 34.632 105.258 34.024 105.706 33.576C106.218 33.064 106.826 32.648 107.53 32.328C108.106 32.072 108.81 31.944 109.642 31.944C110.73 31.944 111.562 32.456 112.138 33.48C112.33 33.928 112.49 34.504 112.618 35.208C112.682 35.464 112.714 35.752 112.714 36.072C112.714 36.392 112.714 36.712 112.714 37.032C112.714 37.352 112.714 37.704 112.714 38.088C112.714 38.408 112.682 38.792 112.618 39.24C112.618 39.56 112.586 39.912 112.522 40.296C112.458 40.616 112.394 41 112.33 41.448C112.266 41.768 112.202 42.12 112.138 42.504C112.074 42.824 111.978 43.176 111.85 43.56C111.786 43.88 111.722 44.232 111.658 44.616C111.658 45 111.594 45.384 111.466 45.768C112.298 46.216 113.29 46.44 114.442 46.44C114.826 46.44 115.178 46.44 115.498 46.44C115.818 46.376 116.138 46.312 116.458 46.248C117.354 46.056 118.026 45.832 118.474 45.576C118.794 45.384 119.082 45.192 119.338 45C119.594 44.808 119.85 44.584 120.106 44.328C120.362 44.008 120.586 43.752 120.778 43.56C121.034 43.304 121.226 43.016 121.354 42.696C121.61 42.312 121.77 41.96 121.834 41.64C121.898 41.256 121.962 40.968 122.026 40.776V40.488C122.09 40.36 122.09 40.264 122.026 40.2C122.026 40.136 122.09 40.072 122.218 40.008C122.858 39.944 123.274 39.944 123.466 40.008C123.658 40.008 124.074 40.072 124.714 40.2C125.354 40.264 125.77 40.264 125.962 40.2C126.218 40.136 126.666 40.232 127.306 40.488C127.434 40.552 127.434 40.648 127.306 40.776C127.242 40.904 127.178 41.032 127.114 41.16L126.634 43.272L126.346 45.384L125.962 47.496C125.898 47.816 125.802 48.168 125.674 48.552C125.61 48.872 125.546 49.192 125.482 49.512L125.194 51.624L124.81 53.736L124.618 55.848C124.554 56.232 124.49 56.616 124.426 57C124.362 57.32 124.33 57.64 124.33 57.96L124.042 60.072C123.978 60.456 123.946 60.84 123.946 61.224C124.01 61.544 124.01 61.864 123.946 62.184L123.658 64.392C123.658 64.712 123.626 65.064 123.562 65.448C123.562 65.768 123.562 66.12 123.562 66.504C123.562 66.824 123.53 67.176 123.466 67.56C123.402 67.944 123.37 68.296 123.37 68.616C123.37 68.936 123.402 69.288 123.466 69.672C123.53 70.056 123.562 70.408 123.562 70.728C123.626 71.112 123.658 71.496 123.658 71.88C123.658 72.2 123.658 72.52 123.658 72.84L123.946 74.952C124.074 75.848 124.202 76.552 124.33 77.064C124.65 77.96 124.97 78.6 125.29 78.984C125.802 79.624 126.41 79.944 127.114 79.944C127.818 79.944 128.522 79.752 129.226 79.368C129.482 79.24 129.706 79.048 129.898 78.792C130.154 78.536 130.442 78.248 130.762 77.928L132.01 76.296C132.202 75.976 132.394 75.688 132.586 75.432C132.778 75.112 132.938 74.792 133.066 74.472ZM110.986 33.96C110.666 33.448 110.314 33.16 109.93 33.096C109.866 33.288 109.77 33.544 109.642 33.864C109.514 34.184 109.418 34.568 109.354 35.016C109.226 35.336 109.162 35.688 109.162 36.072C109.226 36.392 109.226 36.712 109.162 37.032C109.162 37.352 109.13 37.704 109.066 38.088C109.066 38.408 109.066 38.728 109.066 39.048C109.066 39.368 109.066 39.72 109.066 40.104C109.066 40.424 109.098 40.744 109.162 41.064C109.226 41.384 109.258 41.704 109.258 42.024C109.322 42.344 109.418 42.664 109.546 42.984C109.738 43.624 110.058 44.232 110.506 44.808L110.89 42.888C110.954 42.568 111.018 42.248 111.082 41.928C111.146 41.608 111.178 41.288 111.178 40.968C111.242 40.584 111.273 40.232 111.273 39.912C111.273 39.592 111.273 39.272 111.273 38.952C111.338 38.632 111.37 38.312 111.37 37.992C111.37 37.672 111.37 37.352 111.37 37.032C111.37 35.56 111.242 34.536 110.986 33.96ZM172.562 79.944C173.138 79.944 173.81 79.784 174.578 79.464C174.898 79.336 175.154 79.144 175.346 78.888C175.538 78.632 175.794 78.376 176.114 78.12C176.306 77.928 176.53 77.736 176.786 77.544C177.042 77.288 177.266 77.032 177.458 76.776C177.714 76.456 177.938 76.2 178.13 76.008C178.386 75.752 178.578 75.464 178.706 75.144C179.026 74.632 179.346 74.024 179.666 73.32L180.626 71.592C180.754 71.272 180.85 70.952 180.914 70.632C181.042 70.312 181.17 69.992 181.298 69.672C181.426 69.352 181.554 69.064 181.682 68.808C181.874 68.488 182.034 68.168 182.162 67.848C182.29 67.528 182.386 67.208 182.45 66.888C182.514 66.568 182.61 66.248 182.738 65.928L183.314 64.008C183.634 63.88 183.826 63.88 183.89 64.008C183.954 64.072 184.114 64.2 184.37 64.392C184.242 64.648 184.146 64.936 184.082 65.256C184.082 65.512 184.018 65.8 183.89 66.12C183.826 66.44 183.698 66.76 183.506 67.08C183.378 67.336 183.25 67.624 183.122 67.944L182.45 69.768C182.322 70.088 182.194 70.408 182.066 70.728C182.002 70.984 181.906 71.272 181.778 71.592C181.65 71.912 181.522 72.2 181.394 72.456C181.266 72.712 181.138 73 181.01 73.32L180.242 75.144L178.994 76.776L177.746 78.312C177.49 78.632 177.234 78.888 176.978 79.08C176.722 79.208 176.466 79.368 176.21 79.56C175.89 79.816 175.602 80.04 175.346 80.232C175.09 80.36 174.802 80.488 174.482 80.616C174.162 80.744 173.842 80.84 173.522 80.904C173.202 80.968 172.882 81 172.562 81C172.242 81 171.89 81 171.506 81C171.186 81.064 170.866 81.032 170.546 80.904C169.97 80.776 169.394 80.456 168.818 79.944C168.498 79.752 168.21 79.56 167.954 79.368C167.762 79.112 167.538 78.856 167.282 78.6C167.09 78.344 166.898 78.056 166.706 77.736C166.578 77.416 166.418 77.096 166.226 76.776C166.098 76.456 165.938 76.168 165.746 75.912C165.554 75.656 165.394 75.368 165.266 75.048C165.138 74.728 165.042 74.408 164.978 74.088C164.978 73.704 164.914 73.32 164.786 72.936L164.402 71.016C164.338 70.696 164.274 70.376 164.21 70.056C164.146 69.672 164.114 69.288 164.114 68.904C164.05 68.584 163.954 68.264 163.826 67.944C163.762 67.624 163.73 67.272 163.73 66.888L163.538 64.872C163.538 64.552 163.538 64.232 163.538 63.912C163.602 63.528 163.634 63.144 163.634 62.76C163.57 62.44 163.538 62.12 163.538 61.8C163.538 61.416 163.538 61.064 163.538 60.744C163.538 60.424 163.538 60.104 163.538 59.784C163.602 59.4 163.634 59.048 163.634 58.728C163.634 58.408 163.666 58.056 163.73 57.672C163.794 57.288 163.826 56.936 163.826 56.616L164.018 54.6C164.018 54.28 164.018 53.96 164.018 53.64C164.018 53.256 164.05 52.872 164.114 52.488C164.114 52.168 164.082 51.848 164.018 51.528C164.018 51.144 164.05 50.792 164.114 50.472L164.498 48.552C164.562 48.232 164.562 47.912 164.498 47.592C164.434 47.272 164.434 46.952 164.498 46.632L164.882 44.712C164.946 44.392 164.946 44.072 164.882 43.752C164.882 43.432 164.914 43.112 164.978 42.792L165.266 40.776C164.818 40.648 164.498 40.648 164.306 40.776C164.178 40.904 163.858 40.968 163.346 40.968C162.898 40.968 162.578 41.032 162.386 41.16C162.194 41.224 161.906 41.128 161.522 40.872C160.946 40.424 160.946 40.04 161.522 39.72C161.97 39.4 162.29 39.304 162.482 39.432C162.61 39.56 162.93 39.624 163.442 39.624C163.954 39.624 164.274 39.656 164.402 39.72C164.594 39.784 164.914 39.72 165.362 39.528L165.65 37.608C165.714 37.224 165.778 36.872 165.842 36.552C165.97 36.168 166.066 35.816 166.13 35.496C166.194 35.176 166.194 34.824 166.13 34.44C166.13 34.056 166.162 33.704 166.226 33.384C166.354 33 166.45 32.648 166.514 32.328C166.578 31.944 166.642 31.592 166.706 31.272C166.77 30.952 166.834 30.632 166.898 30.312C167.026 29.928 167.122 29.576 167.186 29.256C167.314 28.872 167.378 28.52 167.378 28.2C167.378 27.816 167.442 27.464 167.57 27.144C167.634 26.824 167.634 26.472 167.57 26.088C167.57 25.704 167.602 25.352 167.666 25.032C167.794 24.648 167.89 24.296 167.954 23.976C168.018 23.592 168.082 23.24 168.146 22.92C168.21 22.6 168.274 22.28 168.338 21.96C168.466 21.576 168.562 21.224 168.626 20.904L168.914 18.792C169.042 18.408 169.106 18.056 169.106 17.736C169.106 17.352 169.138 17 169.202 16.68C169.33 16.296 169.458 15.944 169.586 15.624C169.714 15.24 169.81 14.856 169.874 14.472L170.162 12.264C170.29 11.88 170.354 11.496 170.354 11.112C170.354 10.728 170.386 10.376 170.45 10.056C170.514 9.928 170.514 9.832 170.45 9.768C170.45 9.64 170.514 9.576 170.642 9.576C171.282 9.448 171.698 9.448 171.89 9.576C172.082 9.64 172.498 9.704 173.138 9.768C173.842 9.896 174.29 9.928 174.482 9.86399C174.738 9.736 175.122 9.832 175.634 10.152C175.89 10.28 175.954 10.408 175.826 10.536C175.698 10.664 175.602 10.888 175.538 11.208C175.474 11.528 175.378 11.848 175.25 12.168C175.122 12.488 175.026 12.808 174.962 13.128C174.834 13.448 174.77 13.8 174.77 14.184C174.834 14.568 174.834 14.92 174.77 15.24L174.386 17.256C174.258 17.576 174.162 17.928 174.098 18.312C174.098 18.632 174.066 18.952 174.002 19.272C173.874 19.592 173.778 19.944 173.714 20.328C173.65 20.648 173.586 20.968 173.522 21.288C173.458 21.672 173.394 22.024 173.33 22.344C173.266 22.664 173.202 22.984 173.138 23.304C173.01 23.688 172.914 24.072 172.85 24.456C172.85 24.776 172.818 25.096 172.754 25.416C172.69 25.736 172.626 26.088 172.562 26.472C172.498 26.792 172.402 27.112 172.274 27.432L172.082 29.448C171.954 29.768 171.858 30.12 171.794 30.504C171.794 30.824 171.762 31.144 171.698 31.464L171.314 33.576L170.93 35.592L170.738 37.608L170.354 39.72C170.93 39.912 171.314 39.976 171.506 39.912C171.698 39.784 172.114 39.72 172.754 39.72C173.33 39.72 173.714 39.656 173.906 39.528C174.162 39.4 174.546 39.496 175.058 39.816C175.57 40.136 175.57 40.456 175.058 40.776C174.482 41.096 174.066 41.224 173.81 41.16C173.618 41.096 173.234 41.064 172.658 41.064C172.018 41.064 171.602 41.032 171.41 40.968C171.218 40.84 170.802 40.84 170.162 40.968C170.162 41.288 170.13 41.576 170.066 41.832C170.002 42.088 169.938 42.376 169.874 42.696C169.81 43.016 169.746 43.336 169.682 43.656C169.682 43.912 169.682 44.168 169.682 44.424L169.49 46.536L169.202 48.552C169.202 48.872 169.17 49.224 169.106 49.608C169.042 49.928 168.978 50.248 168.914 50.568C168.85 50.888 168.818 51.24 168.818 51.624C168.882 51.944 168.882 52.264 168.818 52.584C168.818 52.904 168.786 53.256 168.722 53.64C168.658 53.96 168.594 54.28 168.53 54.6C168.53 54.984 168.466 55.336 168.338 55.656C168.274 55.976 168.242 56.296 168.242 56.616C168.178 57 168.178 57.384 168.242 57.768C168.37 58.088 168.402 58.408 168.338 58.728C168.338 59.048 168.306 59.4 168.242 59.784C168.242 60.104 168.242 60.424 168.242 60.744C168.178 61.064 168.114 61.416 168.05 61.8C168.05 62.12 168.05 62.44 168.05 62.76V66.888C168.05 67.208 168.05 67.56 168.05 67.944C168.114 68.264 168.146 68.584 168.146 68.904V70.92L168.434 73.032C168.498 73.352 168.53 73.704 168.53 74.088C168.53 74.408 168.594 74.728 168.722 75.048C168.85 75.432 168.978 75.784 169.106 76.104C169.234 76.36 169.362 76.616 169.49 76.872C169.618 77.256 169.746 77.608 169.874 77.928C170.002 78.248 170.162 78.536 170.354 78.792C170.93 79.56 171.666 79.944 172.562 79.944ZM210.972 74.472C211.164 74.152 211.324 73.832 211.452 73.512C211.644 73.128 211.804 72.776 211.932 72.456L212.796 70.344C212.924 70.024 213.052 69.704 213.18 69.384C213.308 69 213.436 68.616 213.564 68.232L214.044 66.12C214.172 65.736 214.3 65.384 214.428 65.064C214.556 64.68 214.684 64.328 214.812 64.008C215.132 63.944 215.356 63.912 215.484 63.912C215.612 63.912 215.772 64.008 215.964 64.2L215.484 66.12L215.004 67.944L214.332 69.768C214.204 70.088 214.076 70.408 213.948 70.728C213.884 70.984 213.788 71.272 213.66 71.592L212.988 73.32L212.124 75.048C211.932 75.368 211.772 75.656 211.644 75.912C211.516 76.168 211.356 76.456 211.164 76.776L210.012 78.312C209.82 78.632 209.596 78.888 209.34 79.08C209.084 79.272 208.86 79.464 208.668 79.656C208.348 79.912 208.06 80.136 207.804 80.328C207.548 80.456 207.26 80.584 206.94 80.712C206.62 80.84 206.3 80.936 205.98 81C205.66 81.064 205.34 81.096 205.02 81.096C204.7 81.096 204.38 81.064 204.06 81C203.804 80.936 203.516 80.872 203.196 80.808C202.428 80.616 201.82 80.36 201.372 80.04C201.116 79.848 200.892 79.656 200.7 79.464C200.508 79.208 200.284 78.952 200.028 78.696C199.58 78.12 199.228 77.544 198.972 76.968C198.78 76.648 198.588 76.36 198.396 76.104C198.268 75.784 198.14 75.464 198.012 75.144C197.756 74.44 197.596 73.768 197.532 73.128L197.244 71.112C197.244 70.792 197.212 70.472 197.148 70.152C197.148 69.768 197.148 69.416 197.148 69.096C197.084 68.776 197.02 68.456 196.956 68.136C196.956 67.752 196.956 67.368 196.956 66.984V64.968C196.956 64.648 196.956 64.328 196.956 64.008C197.02 63.624 197.084 63.272 197.148 62.952C197.148 62.568 197.116 62.216 197.052 61.896C197.052 61.512 197.084 61.16 197.148 60.84C197.148 60.52 197.18 60.2 197.244 59.88C197.308 59.496 197.34 59.144 197.34 58.824L197.724 56.808C197.724 56.488 197.692 56.136 197.628 55.752C197.628 55.368 197.66 55.016 197.724 54.696L198.012 52.68L198.396 50.664L198.684 48.648L198.972 46.536L199.356 44.616C199.164 44.872 198.94 45.096 198.684 45.288C198.492 45.48 198.236 45.704 197.916 45.96C197.532 46.28 196.956 46.6 196.188 46.92C195.932 47.048 195.644 47.144 195.324 47.208C195.004 47.272 194.684 47.368 194.364 47.496C194.044 47.56 193.724 47.624 193.404 47.688C193.084 47.752 192.732 47.784 192.348 47.784C191.9 47.784 191.356 47.72 190.716 47.592L189.084 47.304L188.988 47.4H189.084C189.02 47.72 188.924 48.04 188.796 48.36C188.732 48.68 188.668 49 188.604 49.32L188.124 51.144L187.644 53.064C187.58 53.384 187.484 53.704 187.356 54.024C187.228 54.28 187.1 54.568 186.972 54.888C186.908 55.208 186.876 55.528 186.876 55.848C186.876 56.168 186.812 56.488 186.684 56.808L186.108 58.632C185.98 58.952 185.852 59.272 185.724 59.592C185.66 59.848 185.564 60.136 185.436 60.456C185.308 60.84 185.212 61.224 185.148 61.608C185.148 61.992 185.084 62.376 184.956 62.76C184.828 63.144 184.7 63.528 184.572 63.912C184.444 64.232 184.316 64.552 184.188 64.872C183.868 65 183.644 65.064 183.516 65.064C183.452 65 183.324 64.84 183.132 64.584L183.708 62.376C183.836 62.056 183.932 61.704 183.996 61.32C184.124 60.936 184.252 60.552 184.38 60.168L184.86 58.248C184.988 57.928 185.084 57.64 185.148 57.384C185.276 57.064 185.404 56.744 185.532 56.424L185.916 54.6C186.044 54.28 186.14 53.96 186.204 53.64C186.332 53.32 186.428 53 186.492 52.68L186.972 50.856C187.036 50.536 187.068 50.216 187.068 49.896C187.132 49.576 187.228 49.256 187.356 48.936L187.836 47.112L186.012 46.248C185.692 46.056 185.404 45.864 185.148 45.672C184.892 45.416 184.636 45.192 184.38 45C183.868 44.488 183.42 43.944 183.036 43.368C182.908 43.048 182.78 42.76 182.652 42.504C182.46 42.184 182.3 41.864 182.172 41.544C182.044 41.224 181.98 40.904 181.98 40.584C181.916 40.2 181.852 39.848 181.788 39.528C181.788 39.208 181.788 38.888 181.788 38.568C181.788 38.184 181.82 37.832 181.884 37.512C181.948 36.808 182.14 36.104 182.46 35.4C182.78 34.632 183.164 34.024 183.612 33.576C184.124 33.064 184.732 32.648 185.436 32.328C186.012 32.072 186.716 31.944 187.548 31.944C188.636 31.944 189.468 32.456 190.044 33.48C190.236 33.928 190.396 34.504 190.524 35.208C190.588 35.464 190.62 35.752 190.62 36.072C190.62 36.392 190.62 36.712 190.62 37.032C190.62 37.352 190.62 37.704 190.62 38.088C190.62 38.408 190.588 38.792 190.524 39.24C190.524 39.56 190.492 39.912 190.428 40.296C190.364 40.616 190.3 41 190.236 41.448C190.172 41.768 190.108 42.12 190.044 42.504C189.98 42.824 189.884 43.176 189.756 43.56C189.692 43.88 189.628 44.232 189.564 44.616C189.564 45 189.5 45.384 189.372 45.768C190.204 46.216 191.196 46.44 192.348 46.44C192.732 46.44 193.084 46.44 193.404 46.44C193.724 46.376 194.044 46.312 194.364 46.248C195.26 46.056 195.932 45.832 196.38 45.576C196.7 45.384 196.988 45.192 197.244 45C197.5 44.808 197.756 44.584 198.012 44.328C198.268 44.008 198.492 43.752 198.684 43.56C198.94 43.304 199.132 43.016 199.26 42.696C199.516 42.312 199.676 41.96 199.74 41.64C199.804 41.256 199.868 40.968 199.932 40.776V40.488C199.996 40.36 199.996 40.264 199.932 40.2C199.932 40.136 199.996 40.072 200.124 40.008C200.764 39.944 201.18 39.944 201.372 40.008C201.564 40.008 201.98 40.072 202.62 40.2C203.26 40.264 203.676 40.264 203.868 40.2C204.124 40.136 204.572 40.232 205.212 40.488C205.34 40.552 205.34 40.648 205.212 40.776C205.148 40.904 205.084 41.032 205.02 41.16L204.54 43.272L204.252 45.384L203.868 47.496C203.804 47.816 203.708 48.168 203.58 48.552C203.516 48.872 203.452 49.192 203.388 49.512L203.1 51.624L202.716 53.736L202.524 55.848C202.46 56.232 202.396 56.616 202.332 57C202.268 57.32 202.236 57.64 202.236 57.96L201.948 60.072C201.884 60.456 201.852 60.84 201.852 61.224C201.916 61.544 201.916 61.864 201.852 62.184L201.564 64.392C201.564 64.712 201.532 65.064 201.468 65.448C201.468 65.768 201.468 66.12 201.468 66.504C201.468 66.824 201.436 67.176 201.372 67.56C201.308 67.944 201.276 68.296 201.276 68.616C201.276 68.936 201.308 69.288 201.372 69.672C201.436 70.056 201.468 70.408 201.468 70.728C201.532 71.112 201.564 71.496 201.564 71.88C201.564 72.2 201.564 72.52 201.564 72.84L201.852 74.952C201.98 75.848 202.108 76.552 202.236 77.064C202.556 77.96 202.876 78.6 203.196 78.984C203.708 79.624 204.316 79.944 205.02 79.944C205.724 79.944 206.428 79.752 207.132 79.368C207.388 79.24 207.612 79.048 207.804 78.792C208.06 78.536 208.348 78.248 208.668 77.928L209.916 76.296C210.108 75.976 210.3 75.688 210.492 75.432C210.684 75.112 210.844 74.792 210.972 74.472ZM188.892 33.96C188.572 33.448 188.22 33.16 187.836 33.096C187.772 33.288 187.676 33.544 187.548 33.864C187.42 34.184 187.324 34.568 187.26 35.016C187.132 35.336 187.068 35.688 187.068 36.072C187.132 36.392 187.132 36.712 187.068 37.032C187.068 37.352 187.036 37.704 186.972 38.088C186.972 38.408 186.972 38.728 186.972 39.048C186.972 39.368 186.972 39.72 186.972 40.104C186.972 40.424 187.004 40.744 187.068 41.064C187.132 41.384 187.164 41.704 187.164 42.024C187.228 42.344 187.324 42.664 187.452 42.984C187.644 43.624 187.964 44.232 188.412 44.808L188.796 42.888C188.86 42.568 188.924 42.248 188.988 41.928C189.052 41.608 189.084 41.288 189.084 40.968C189.148 40.584 189.18 40.232 189.18 39.912C189.18 39.592 189.18 39.272 189.18 38.952C189.244 38.632 189.276 38.312 189.276 37.992C189.276 37.672 189.276 37.352 189.276 37.032C189.276 35.56 189.148 34.536 188.892 33.96ZM239.208 72.456L239.976 70.344C240.104 70.024 240.232 69.704 240.36 69.384C240.488 69 240.616 68.616 240.744 68.232C240.872 67.912 240.968 67.56 241.032 67.176C241.16 66.792 241.288 66.44 241.416 66.12L241.992 63.912C242.312 63.848 242.536 63.848 242.664 63.912C242.792 63.912 242.984 64.008 243.24 64.2L242.664 66.12L242.088 67.944C241.96 68.264 241.832 68.584 241.704 68.904C241.64 69.16 241.544 69.448 241.416 69.768L240.84 71.496C240.712 71.816 240.584 72.136 240.456 72.456C240.392 72.712 240.296 73 240.168 73.32C240.04 73.64 239.912 73.928 239.784 74.184C239.656 74.44 239.528 74.728 239.4 75.048C239.208 75.368 239.016 75.656 238.824 75.912C238.696 76.168 238.536 76.424 238.344 76.68C237.896 77.384 237.544 77.928 237.288 78.312C237.032 78.632 236.776 78.888 236.52 79.08C236.264 79.272 236.04 79.464 235.848 79.656C235.528 79.848 235.24 80.04 234.984 80.232C234.792 80.424 234.536 80.584 234.216 80.712C233.896 80.84 233.576 80.936 233.256 81C232.936 81.064 232.616 81.096 232.296 81.096C231.656 81.096 231.048 81 230.472 80.808C230.152 80.744 229.864 80.68 229.608 80.616C229.352 80.552 229.064 80.456 228.744 80.328C228.232 80.136 227.72 79.848 227.208 79.464C226.952 79.272 226.696 79.08 226.44 78.888C226.248 78.696 226.056 78.472 225.864 78.216C225.416 77.704 225 77.096 224.616 76.392L223.752 74.472C223.624 73.96 223.496 73.256 223.368 72.36C223.24 72.04 223.176 71.72 223.176 71.4C223.176 71.016 223.144 70.632 223.08 70.248C223.08 69.928 223.048 69.576 222.984 69.192C222.92 68.808 222.888 68.456 222.888 68.136C222.888 67.752 222.92 67.4 222.984 67.08C223.048 66.696 223.08 66.312 223.08 65.928L223.272 63.816C223.272 63.112 223.368 62.408 223.56 61.704C223.624 61.384 223.688 61.064 223.752 60.744C223.816 60.36 223.912 59.976 224.04 59.592C224.168 59.272 224.232 58.952 224.232 58.632C224.232 58.248 224.296 57.896 224.424 57.576C224.488 57.192 224.552 56.84 224.616 56.52C224.68 56.136 224.776 55.784 224.904 55.464L225.576 53.448L226.056 51.336C226.184 50.952 226.28 50.6 226.344 50.28C226.472 49.896 226.568 49.512 226.632 49.128L227.112 47.016C227.24 46.632 227.304 46.248 227.304 45.864C227.304 45.48 227.336 45.128 227.4 44.808C227.464 44.424 227.528 44.04 227.592 43.656C227.72 43.272 227.752 42.92 227.688 42.6C227.688 41.704 227.496 41 227.112 40.488C226.856 40.168 226.408 40.008 225.768 40.008C225.448 40.008 225.128 40.04 224.808 40.104C224.552 40.168 224.264 40.328 223.944 40.584C223.688 40.776 223.464 41 223.272 41.256C223.08 41.512 222.888 41.8 222.696 42.12C222.568 42.376 222.408 42.664 222.216 42.984C222.024 43.24 221.864 43.528 221.736 43.848C221.608 44.104 221.448 44.392 221.256 44.712C221.064 44.968 220.904 45.256 220.776 45.576C220.648 45.896 220.52 46.248 220.392 46.632C220.328 46.952 220.232 47.304 220.104 47.688C219.976 48.008 219.848 48.36 219.72 48.744C219.656 49.064 219.56 49.384 219.432 49.704L218.856 51.816C218.728 52.2 218.632 52.584 218.568 52.968C218.568 53.288 218.536 53.64 218.472 54.024C218.344 54.344 218.216 54.696 218.088 55.08C218.024 55.4 217.96 55.752 217.896 56.136L217.32 58.248L216.84 60.456L216.36 62.76L215.784 64.968C215.464 65.096 215.24 65.128 215.112 65.064C214.984 64.936 214.824 64.776 214.632 64.584L215.208 62.376C215.464 61.544 215.624 60.808 215.688 60.168C215.944 59.336 216.104 58.6 216.168 57.96L216.648 55.944C216.712 55.624 216.776 55.304 216.84 54.984C216.904 54.6 217 54.248 217.128 53.928C217.192 53.608 217.256 53.288 217.32 52.968C217.448 52.648 217.576 52.328 217.704 52.008L218.184 49.992C218.312 49.672 218.408 49.352 218.472 49.032C218.536 48.648 218.632 48.296 218.76 47.976L219.336 46.056L220.2 44.136C220.328 43.816 220.456 43.496 220.584 43.176C220.712 42.856 220.872 42.568 221.064 42.312C221.256 41.992 221.448 41.704 221.64 41.448C221.896 41.192 222.12 40.936 222.312 40.68C222.888 40.04 223.4 39.592 223.848 39.336C224.168 39.208 224.488 39.08 224.808 38.952C225.128 38.824 225.448 38.76 225.768 38.76V38.856C226.472 38.856 227.112 38.952 227.688 39.144C228.2 39.4 228.712 39.784 229.224 40.296C229.416 40.616 229.608 40.936 229.8 41.256C230.056 41.512 230.248 41.8 230.376 42.12C230.504 42.44 230.568 42.792 230.568 43.176C230.568 43.496 230.6 43.848 230.664 44.232C230.728 44.552 230.76 44.904 230.76 45.288C230.824 45.608 230.856 45.96 230.856 46.344C230.856 46.664 230.824 47.016 230.76 47.4C230.76 47.784 230.76 48.136 230.76 48.456C230.696 48.84 230.664 49.224 230.664 49.608C230.664 49.928 230.664 50.28 230.664 50.664L230.376 52.776L229.992 54.888L229.608 56.904C229.48 57.8 229.352 58.504 229.224 59.016L228.744 61.896L228.36 64.008L228.072 66.12C228.008 66.504 227.944 66.888 227.88 67.272C227.88 67.592 227.88 67.912 227.88 68.232C227.816 68.616 227.784 69 227.784 69.384C227.848 69.768 227.88 70.12 227.88 70.44C227.816 70.824 227.752 71.208 227.688 71.592C227.688 71.912 227.72 72.232 227.784 72.552C227.784 72.936 227.816 73.32 227.88 73.704C227.944 74.024 228.008 74.344 228.072 74.664C228.2 75.56 228.328 76.264 228.456 76.776C228.584 77.16 228.744 77.512 228.936 77.832C229.128 78.088 229.32 78.344 229.512 78.6C230.024 79.112 230.44 79.432 230.76 79.56C231.208 79.752 231.72 79.848 232.296 79.848C232.936 79.848 233.608 79.656 234.312 79.272C234.568 79.144 234.824 78.984 235.08 78.792C235.4 78.6 235.688 78.344 235.944 78.024C236.328 77.64 236.744 77.064 237.192 76.296C237.512 75.784 237.832 75.176 238.152 74.472L239.208 72.456ZM229.032 29.64C228.136 29.64 227.464 29.352 227.016 28.776C226.44 28.2 226.152 27.528 226.152 26.76C226.152 26.248 226.312 25.672 226.632 25.032C226.952 24.456 227.336 24.04 227.784 23.784C228.232 23.464 228.744 23.24 229.32 23.112H229.8C230.632 23.112 231.304 23.4 231.816 23.976C232.392 24.552 232.68 25.224 232.68 25.992C232.68 26.504 232.52 27.08 232.2 27.72C231.88 28.296 231.496 28.712 231.048 28.968C230.6 29.288 230.088 29.512 229.512 29.64H229.032ZM257.177 38.76C257.561 38.76 257.913 38.76 258.233 38.76C258.617 38.696 259.001 38.728 259.385 38.856C259.705 38.984 260.025 39.112 260.345 39.24C260.729 39.368 261.081 39.496 261.401 39.624C262.105 40.008 262.713 40.392 263.225 40.776C263.481 40.968 263.737 41.192 263.993 41.448C264.249 41.64 264.537 41.896 264.857 42.216C265.049 42.472 265.209 42.728 265.337 42.984C265.529 43.24 265.721 43.528 265.913 43.848C266.105 44.104 266.265 44.392 266.393 44.712C266.521 44.968 266.649 45.256 266.777 45.576C266.905 45.896 267.033 46.184 267.161 46.44C267.353 46.696 267.513 46.984 267.641 47.304C267.769 47.624 267.865 47.944 267.929 48.264C267.993 48.584 268.089 48.904 268.217 49.224C268.345 49.544 268.377 49.864 268.313 50.184C268.313 50.504 268.345 50.824 268.409 51.144C268.473 51.464 268.537 51.784 268.601 52.104C268.729 52.424 268.793 52.744 268.793 53.064C268.857 53.384 268.889 53.736 268.889 54.12C268.953 54.44 268.985 54.76 268.985 55.08C268.985 55.4 268.953 55.72 268.889 56.04C268.889 56.36 268.889 56.68 268.889 57L268.313 61.032C268.185 61.352 268.089 61.704 268.025 62.088C268.025 62.408 267.993 62.728 267.929 63.048L267.353 64.968L266.777 66.984L265.913 68.808C265.785 69.128 265.625 69.448 265.433 69.768C265.241 70.024 265.081 70.312 264.953 70.632C264.761 70.952 264.569 71.272 264.377 71.592C264.249 71.848 264.121 72.136 263.993 72.456L262.745 74.088L261.401 75.624L259.961 77.064L258.329 78.312L256.601 79.464C256.281 79.592 255.961 79.72 255.641 79.848C255.321 79.912 255.001 80.008 254.681 80.136C254.361 80.264 254.009 80.392 253.625 80.52C253.305 80.584 252.985 80.648 252.665 80.712C252.345 80.84 251.993 80.904 251.609 80.904C251.289 80.904 250.969 80.904 250.649 80.904C250.265 80.904 249.881 80.904 249.497 80.904C249.113 80.904 248.761 80.84 248.441 80.712C248.121 80.584 247.833 80.392 247.577 80.136C247.385 79.88 247.129 79.624 246.809 79.368C246.553 79.112 246.297 78.856 246.041 78.6C245.849 78.344 245.657 78.056 245.465 77.736C245.337 77.416 245.177 77.096 244.985 76.776C244.857 76.392 244.729 76.008 244.601 75.624C244.537 75.944 244.505 76.328 244.505 76.776C244.569 77.16 244.601 77.512 244.601 77.832C244.537 78.216 244.473 78.6 244.409 78.984C244.409 79.304 244.409 79.656 244.409 80.04C244.345 80.36 244.313 80.68 244.313 81C244.377 81.384 244.377 81.768 244.313 82.152C244.313 82.472 244.281 82.824 244.217 83.208C244.217 83.592 244.185 83.944 244.121 84.264C244.121 84.584 244.089 84.936 244.025 85.32C243.961 85.704 243.897 86.056 243.833 86.376C243.833 86.696 243.833 87.048 243.833 87.432C243.833 87.816 243.801 88.168 243.737 88.488V90.6C243.673 90.984 243.609 91.336 243.545 91.656C243.545 92.04 243.545 92.392 243.545 92.712C243.481 93.096 243.449 93.448 243.449 93.768C243.513 94.152 243.545 94.504 243.545 94.824C243.481 95.208 243.417 95.56 243.353 95.88C243.353 96.264 243.353 96.648 243.353 97.032L243.065 99.144C243.065 99.464 243.001 99.784 242.873 100.104C242.809 100.488 242.777 100.872 242.777 101.256C242.713 101.576 242.649 101.896 242.585 102.216C242.585 102.6 242.585 102.984 242.585 103.368C242.521 103.688 242.457 104.04 242.393 104.424C242.393 104.808 242.393 105.16 242.393 105.48L242.201 107.592C242.137 107.976 242.041 108.328 241.913 108.648C241.785 108.968 241.689 109.288 241.625 109.608C241.625 109.736 241.657 109.832 241.721 109.896C241.785 110.024 241.753 110.12 241.625 110.184C241.113 110.248 240.761 110.248 240.569 110.184C240.377 110.12 239.993 110.024 239.417 109.896C238.905 109.832 238.553 109.832 238.361 109.896C238.105 109.96 237.721 109.864 237.209 109.608C237.081 109.544 237.049 109.448 237.113 109.32C237.177 109.256 237.241 109.128 237.305 108.936C237.369 108.744 237.401 108.456 237.401 108.072C237.401 107.752 237.465 107.368 237.593 106.92C237.593 106.6 237.657 106.248 237.785 105.864C237.913 105.544 238.009 105.192 238.073 104.808C238.073 104.488 238.073 104.136 238.073 103.752C238.073 103.432 238.105 103.08 238.169 102.696C238.169 102.376 238.201 102.024 238.265 101.64C238.265 101.32 238.265 100.968 238.265 100.584L238.553 98.568L238.841 96.456C238.841 96.136 238.873 95.784 238.937 95.4C239.001 95.08 239.065 94.728 239.129 94.344C239.193 94.024 239.193 93.672 239.129 93.288C239.065 92.968 239.065 92.616 239.129 92.232L239.321 90.12L239.609 88.104C239.609 87.784 239.641 87.432 239.705 87.048C239.769 86.664 239.801 86.312 239.801 85.992C239.865 85.672 239.897 85.32 239.897 84.936C239.833 84.552 239.801 84.2 239.801 83.88L240.089 81.768L240.281 79.656L240.473 77.64C240.473 77.256 240.505 76.904 240.569 76.584C240.633 76.264 240.697 75.944 240.761 75.624C240.825 75.304 240.889 74.984 240.953 74.664C240.953 74.28 240.953 73.928 240.953 73.608L241.145 71.496L241.529 67.464C241.593 67.144 241.625 66.824 241.625 66.504C241.561 66.12 241.561 65.768 241.625 65.448L241.913 63.432V61.416C241.977 61.096 242.009 60.776 242.009 60.456C242.073 60.072 242.105 59.72 242.105 59.4C242.169 59.08 242.169 58.76 242.105 58.44C242.105 58.056 242.137 57.704 242.201 57.384L242.585 55.368L242.969 51.336C242.969 51.016 242.969 50.696 242.969 50.376C242.969 49.992 243.001 49.64 243.065 49.32C243.129 49 243.193 48.68 243.257 48.36C243.321 47.976 243.353 47.624 243.353 47.304L243.545 45.288L243.833 43.272L244.025 41.256C244.089 40.872 244.121 40.52 244.121 40.2C244.185 39.816 244.217 39.464 244.217 39.144C244.665 39.016 245.081 39.048 245.465 39.24C245.529 39.56 245.561 39.912 245.561 40.296C245.625 40.616 245.657 41 245.657 41.448C245.657 41.768 245.625 42.088 245.561 42.408C245.497 42.728 245.465 43.08 245.465 43.464V45.576C245.465 45.896 245.497 46.248 245.561 46.632C245.625 47.016 245.657 47.368 245.657 47.688C245.657 48.072 245.657 48.456 245.657 48.84C245.657 49.16 245.625 49.48 245.561 49.8C245.561 50.184 245.529 50.568 245.465 50.952C245.401 51.272 245.337 51.592 245.273 51.912C245.273 52.296 245.273 52.68 245.273 53.064C245.337 53.384 245.369 53.704 245.369 54.024V56.136C245.369 56.52 245.337 56.872 245.273 57.192C245.273 57.512 245.273 57.864 245.273 58.248L245.849 56.328C245.977 56.008 246.041 55.688 246.041 55.368C246.041 54.984 246.105 54.632 246.233 54.312L246.905 52.392C247.033 52.072 247.129 51.784 247.193 51.528C247.321 51.208 247.449 50.888 247.577 50.568C247.705 50.248 247.769 49.928 247.769 49.608C247.833 49.224 247.929 48.872 248.057 48.552C248.185 48.232 248.345 47.944 248.537 47.688C248.729 47.368 248.889 47.048 249.017 46.728C249.209 46.152 249.465 45.512 249.785 44.808C249.913 44.488 250.073 44.2 250.265 43.944C250.521 43.688 250.713 43.432 250.841 43.176L251.897 41.352C252.153 41.096 252.409 40.872 252.665 40.68C252.921 40.488 253.209 40.296 253.529 40.104C254.105 39.592 254.681 39.272 255.257 39.144C255.577 39.016 255.897 38.92 256.217 38.856C256.537 38.792 256.857 38.76 257.177 38.76ZM245.465 74.664C245.593 74.984 245.689 75.304 245.753 75.624C245.881 75.88 246.009 76.168 246.137 76.488C246.393 77.064 246.745 77.64 247.193 78.216C247.385 78.472 247.609 78.696 247.865 78.888C248.185 79.016 248.505 79.144 248.825 79.272C249.337 79.528 249.945 79.656 250.649 79.656C251.417 79.656 252.089 79.528 252.665 79.272C253.113 79.144 253.721 78.792 254.489 78.216C254.745 78.024 255.001 77.832 255.257 77.64C255.513 77.448 255.769 77.192 256.025 76.872C256.281 76.616 256.505 76.392 256.697 76.2C256.953 75.944 257.177 75.656 257.369 75.336C257.625 75.016 257.817 74.728 257.945 74.472C258.137 74.152 258.329 73.832 258.521 73.512C258.969 72.872 259.321 72.232 259.577 71.592L260.537 69.576C260.665 69.256 260.761 68.904 260.825 68.52C260.953 68.136 261.081 67.784 261.209 67.464C261.337 67.144 261.433 66.824 261.497 66.504C261.625 66.12 261.753 65.736 261.881 65.352C262.009 65.032 262.073 64.68 262.073 64.296C262.137 63.912 262.201 63.528 262.265 63.144C262.521 62.312 262.681 61.608 262.745 61.032L262.937 58.824L263.321 56.808C263.321 56.488 263.321 56.168 263.321 55.848C263.321 55.464 263.353 55.112 263.417 54.792C263.417 54.472 263.385 54.152 263.321 53.832C263.321 53.512 263.321 53.192 263.321 52.872C263.321 52.552 263.289 52.232 263.225 51.912C263.225 51.528 263.193 51.176 263.129 50.856C263.129 50.536 263.129 50.216 263.129 49.896C263.129 49.512 263.097 49.16 263.033 48.84L262.649 46.824L262.169 44.904C262.041 44.584 261.881 44.296 261.689 44.04C261.561 43.72 261.433 43.4 261.305 43.08C260.985 42.44 260.601 41.896 260.153 41.448C259.705 40.872 259.289 40.52 258.905 40.392C258.585 40.264 258.297 40.2 258.041 40.2C257.785 40.136 257.497 40.104 257.177 40.104V39.912C256.345 39.912 255.641 40.04 255.065 40.296C254.745 40.424 254.489 40.616 254.297 40.872C254.105 41.128 253.849 41.416 253.529 41.736C253.273 41.928 253.049 42.184 252.857 42.504C252.665 42.76 252.441 43.048 252.185 43.368C251.993 43.624 251.769 43.88 251.513 44.136C251.321 44.392 251.129 44.68 250.937 45C250.809 45.32 250.681 45.672 250.553 46.056C250.425 46.376 250.297 46.696 250.169 47.016C250.041 47.336 249.913 47.688 249.785 48.072C249.657 48.392 249.529 48.712 249.401 49.032L248.633 51.144C248.505 51.464 248.377 51.816 248.249 52.2C248.121 52.52 247.993 52.84 247.865 53.16C247.737 53.544 247.641 53.928 247.577 54.312C247.577 54.632 247.513 54.984 247.385 55.368C247.257 55.688 247.129 56.04 247.001 56.424C246.937 56.744 246.841 57.096 246.713 57.48L246.137 59.592C246.009 59.912 245.945 60.264 245.945 60.648C245.945 61.032 245.881 61.384 245.753 61.704C245.625 62.088 245.497 62.472 245.369 62.856C245.305 63.176 245.209 63.496 245.081 63.816C245.017 64.136 244.985 64.456 244.985 64.776C245.049 65.096 245.081 65.416 245.081 65.736C245.017 66.056 244.953 66.376 244.889 66.696C244.825 66.952 244.793 67.24 244.793 67.56C244.793 67.88 244.825 68.2 244.889 68.52C244.953 68.84 244.953 69.16 244.889 69.48C244.889 69.8 244.857 70.12 244.793 70.44C244.729 70.696 244.665 70.984 244.601 71.304L244.985 73.032C245.049 73.352 245.113 73.64 245.177 73.896C245.305 74.088 245.401 74.344 245.465 74.664Z" fill="#E2AB3F"/>
</svg>
